<svg xmlns="http://www.w3.org/2000/svg" width="64.902" height="50" viewBox="0 0 64.902 50"><g transform="translate(-174 -905)"><circle cx="25" cy="25" r="25" transform="translate(174 905)" fill="rgba(247,142,30,0.13)"/><path d="M8.722,5.891a4.179,4.179,0,0,1,.966-.109L36.066,7.666c2.364.042,4.676,2,3.535,4.548-.222.5-1.226,2.515-2.822,5.693-.652,1.3-1.32,2.625-1.989,3.951l-.646,1.28-.2.394a4.957,4.957,0,0,1-3.12,2.928l-.279.088H7.759a2.075,2.075,0,0,0-1.982,1.891l0,1.775a2.118,2.118,0,0,0,1.892,2h.322a5.667,5.667,0,0,1,10.685,0h4.421a5.665,5.665,0,1,1,0,3.777H18.672a5.667,5.667,0,0,1-10.686,0H7.558A5.934,5.934,0,0,1,2,30.325l0-1.982a5.886,5.886,0,0,1,5.644-5.57L5.8,9.82l-.019-.267A5.342,5.342,0,0,0,4.441,6.168,4.742,4.742,0,0,0,2,5.777V2c2.344,0,4.038.423,5.112,1.5A8.2,8.2,0,0,1,8.722,5.891Zm2.933,16.881H29.889a1.18,1.18,0,0,0,.546-.638l.092-.214.245-.484.646-1.279c.668-1.324,1.336-2.65,1.959-3.89l.027-.054c1.092-2.173,1.926-3.844,2.384-4.78L9.573,9.555l1.85,12.952A.321.321,0,0,0,11.655,22.771ZM28.436,35.99A1.888,1.888,0,1,0,26.548,34.1,1.888,1.888,0,0,0,28.436,35.99Zm-15.107,0A1.888,1.888,0,1,0,11.442,34.1,1.888,1.888,0,0,0,13.33,35.99Z" transform="translate(199 909)" fill="#f78e1e" fill-rule="evenodd"/></g></svg>