<svg xmlns="http://www.w3.org/2000/svg" width="63.739" height="50" viewBox="0 0 63.739 50"><g transform="translate(-934 -905)"><circle cx="25" cy="25" r="25" transform="translate(934 905)" fill="rgba(247,142,30,0.13)"/><path d="M4.34,3H34.4a3.34,3.34,0,0,1,3.34,3.34V29.72a3.34,3.34,0,0,1-3.34,3.34H4.34A3.34,3.34,0,0,1,1,29.72V6.34A3.34,3.34,0,0,1,4.34,3Zm0,3.34V29.72H34.4V6.34ZM14.36,26.38H11.02V16.36h3.34Zm6.68,0H17.7V9.68h3.34Zm6.68,0H24.38V14.69h3.34Z" transform="translate(960 912)" fill="#f78e1e" fill-rule="evenodd"/></g></svg>