<svg xmlns="http://www.w3.org/2000/svg" width="444.927" height="307.65" viewBox="0 0 444.927 307.65"><g transform="translate(-764 -138.771)"><rect width="442.378" height="283.318" transform="translate(764.189 139.022)" fill="#e6e6e6"/><rect width="159.704" height="164.105" transform="translate(803.307 177.067)" fill="#fff"/><rect width="159.704" height="199.316" transform="translate(1022.742 180.249)" fill="#fff"/><ellipse cx="28.608" cy="4.087" rx="28.608" ry="4.087" transform="translate(1151.71 434.765)" fill="#e6e6e6"/><ellipse cx="28.608" cy="4.087" rx="28.608" ry="4.087" transform="translate(865.687 434.856)" fill="#e6e6e6"/><rect width="442.378" height="18.794" transform="translate(764 138.771)" fill="#f78e1e"/><circle cx="3.483" cy="3.483" r="3.483" transform="translate(774.483 144.896)" fill="#e6e6e6"/><circle cx="3.483" cy="3.483" r="3.483" transform="translate(787.705 144.896)" fill="#e6e6e6"/><circle cx="3.483" cy="3.483" r="3.483" transform="translate(800.926 144.896)" fill="#e6e6e6"/><path d="M895.2,331.644h-.968v-26.5A15.339,15.339,0,0,0,878.892,289.8H822.743A15.339,15.339,0,0,0,807.4,305.141V450.535a15.339,15.339,0,0,0,15.339,15.339h56.149a15.339,15.339,0,0,0,15.339-15.339V350.508h.967Z" transform="translate(252.038 -97.932)" fill="#3f3d56"/><path d="M881.01,296.15h-7.329a5.442,5.442,0,0,1-5.039,7.5H836.475a5.442,5.442,0,0,1-5.039-7.5H824.59A11.455,11.455,0,0,0,813.136,307.6V452.786a11.455,11.455,0,0,0,11.455,11.455H881.01a11.455,11.455,0,0,0,11.455-11.455V307.6A11.455,11.455,0,0,0,881.01,296.15Z" transform="translate(249.91 -100.288)" fill="#fff"/><rect width="111.003" height="5.063" transform="translate(827.767 280.729)" fill="#e6e6e6"/><rect width="111.003" height="5.063" transform="translate(827.767 297.077)" fill="#f78e1e"/><rect width="111.003" height="5.063" transform="translate(827.767 313.424)" fill="#e6e6e6"/><rect width="64.802" height="5.063" transform="translate(1070.938 291.776)" fill="#e6e6e6"/><rect width="64.802" height="5.063" transform="translate(1070.938 307.495)" fill="#e6e6e6"/><rect width="64.802" height="5.063" transform="translate(1070.938 323.214)" fill="#e6e6e6"/><rect width="10.8" height="10.8" transform="translate(1142.516 391.036) rotate(90)" fill="#3f3d56"/><rect width="10.8" height="10.8" transform="translate(1125.115 391.036) rotate(90)" fill="#f78e1e"/><rect width="10.8" height="10.8" transform="translate(1107.715 391.036) rotate(90)" fill="#3f3d56"/><rect width="10.8" height="10.8" transform="translate(1090.314 391.036) rotate(90)" fill="#3f3d56"/><rect width="10.8" height="10.8" transform="translate(1072.914 391.036) rotate(90)" fill="#3f3d56"/><rect width="36.001" height="36.001" transform="translate(1084.709 226.162)" fill="#f78e1e"/><path d="M503.078,472.964l-.466.932-1.4-6.99s-1.864-7.456,1.864-7.456,2.8,7.456,2.8,7.456v5.126Z" transform="translate(365.882 -160.912)" fill="#a0616a"/><path d="M599.984,471.446l.466.932,1.4-6.99s1.864-7.456-1.864-7.456-2.8,7.456-2.8,7.456v5.126Z" transform="translate(330.118 -160.349)" fill="#a0616a"/><path d="M378.914,358.94l-5.592,34.483,2.8,33.551,6.524-2.8-.932-25.164,6.524-20.038,1.4,23.766-2.8,24.7,8.388.932,6.058-50.793-.466-17.242Z" transform="translate(510.55 5.517)" fill="#2f2e41"/><path d="M535.138,665.55l-3.262,5.126V682.13a1.389,1.389,0,0,0,1.167,1.371c1.6.262,4.383.449,5.357-1.175,1.4-2.33.466-7.456.466-7.456s1.864-3.728.932-6.524-1.864-3.262-1.864-3.262Z" transform="translate(354.326 -237.253)" fill="#2f2e41"/><path d="M556,672.962l.932,1.4s1.4,1.4.466,2.33a18.213,18.213,0,0,0-1.864,2.33s-5.126,1.4-5.126-.466V672.5Z" transform="translate(347.447 -240.004)" fill="#2f2e41"/><circle cx="6.177" cy="6.177" r="6.177" transform="translate(895.587 314.175)" fill="#a0616a"/><path d="M394.91,291.867l-.466,8.854,8.388.466-.466-8.854Z" transform="translate(502.709 30.417)" fill="#a0616a"/><path d="M551.554,509.877l-1.323-3.232s-6.133-2.36-8-.03l-.932,2.8-7.456-1.864-4.194,9.32,3.728,26.562s9.786,12.582,22.834.466l3.728-25.164-2.8-9.786Z" transform="translate(355.151 -178.041)" fill="#575a89"/><path d="M417.049,294.2l.932-1.864,9.32-5.592,5.688-16.836,4.4,1.886-4.963,20.076-13.514,12.581Z" transform="translate(494.317 38.569)" fill="#575a89"/><path d="M369.2,292.456l-.932-.932-9.786-6.058-6.99-13.98L345.9,273.35l6.057,17.242,14.912,12.116Z" transform="translate(520.731 37.983)" fill="#575a89"/><path d="M557.367,477.673l1.01-.505-1.515-.5v-.5s-7.575-3.03-8.585,2.02a10.15,10.15,0,0,0,0,12.12v1.515l8.08,1.01,1.01-3.03S562.416,480.7,557.367,477.673Z" transform="translate(348.982 -166.781)" fill="#2f2e41"/><rect width="110.661" height="63.504" transform="translate(827.828 195.929)" fill="#e6e6e6"/><path d="M961.165,490.395l.513-3.307s2.989-6.794.626-7.16-4.333,6.1-4.333,6.1l.864,6.907Z" transform="translate(196.14 -168.509)" fill="#ffb8b8"/><path d="M829.085,309.183l-21.114-4.241-2.453-15.379-6.215-.48.3,19.883,18.345,9.618Z" transform="translate(352.408 31.45)" fill="#575a89"/><path d="M829.085,309.183l-21.114-4.241-2.453-15.379-6.215-.48.3,19.883,18.345,9.618Z" transform="translate(352.408 31.45)" opacity="0.2"/><rect width="64.802" height="5.063" transform="translate(1188.854 317.818) rotate(180)" fill="#f78e1e"/><path d="M954.234,488.569l0-3.347s1.921-7.169-.469-7.172-3.355,6.689-3.355,6.689l1.9,6.7Z" transform="translate(198.946 -167.818)" fill="#ffb8b8"/><path d="M994.544,498.569l2.9-.706a7.458,7.458,0,0,0,7.32-8.935h0a9.748,9.748,0,0,0-9.736-9.761h0a9.748,9.748,0,0,0-9.759,9.736h0a7.747,7.747,0,0,0,9.279,9.666Z" transform="translate(186.12 -168.232)" fill="#2f2e41"/><path d="M818.254,379.206l2.359,25.82,4.27,25.345,7.172.009-.925-24.862-3.787-30.125Z" transform="translate(345.372 -0.592)" fill="#2f2e41"/><path d="M978.567,665.9l-4.785,2.863s-7.651.947-6.219,3.339,18.167.979,18.168.023-.47-6.216-1.426-6.217Z" transform="translate(192.646 -237.557)" fill="#2f2e41"/><path d="M995.965,580.35s-.134,3.691-3.489,9.424l.456,17.69,17.184,22.014-6.222,5.251L982.888,610.8l-5.223-28.692,6.7-6.685Z" transform="translate(188.829 -203.966)" fill="#2f2e41"/><path d="M1022.922,661.394s5.736.963,4.776,3.353-3.363,13.383-9.577,11.94c0,0-2.869,0-1.91-1.915a34.568,34.568,0,0,1,1.917-3.344l.008-6.215Z" transform="translate(174.592 -235.883)" fill="#2f2e41"/><circle cx="7.171" cy="7.171" r="7.171" transform="translate(1170.388 316.479)" fill="#ffb8b8"/><path d="M841.206,301.647l-.01,8.127-7.649-.009.966-8.126Z" transform="translate(339.695 26.789)" fill="#ffb8b8"/><path d="M980.244,515.011l2.318-.569,7.244.581s3.82,3.83,3.341,4.785-2.9,24.379-2.9,24.379l4.282,16.739-15.3.937-7.648-.966,1.472-30.118s-3.336-8.132.97-10.517a18.834,18.834,0,0,0,6.222-5.251Z" transform="translate(191.088 -181.328)" fill="#575a89"/><path d="M825.009,303.721l-21.513-.983-4.762-14.827-6.216.47,3.322,19.606,19.594,6.718Z" transform="translate(354.926 31.886)" fill="#575a89"/><circle cx="4.627" cy="4.627" r="4.627" transform="translate(1186.776 309.113)" fill="#2f2e41"/><path d="M1009.861,476.737a4.625,4.625,0,0,1,5.537-4.53,4.625,4.625,0,1,0-2.884,8.716,4.624,4.624,0,0,1-2.654-4.186Z" transform="translate(177.272 -165.483)" fill="#2f2e41"/><path d="M995.649,483.169l-6.238-1.149-4.8,3.007a7.277,7.277,0,0,0-3.352,7.1l4.8-1.218,1.076-2.7,1.281,2.1,5.2,9.088,5.263-2.862,3.353-5.255Z" transform="translate(187.516 -169.291)" fill="#2f2e41"/><rect width="1.257" height="127.588" transform="translate(827.515 196.475) rotate(-60.15)" fill="#fff"/><rect width="127.588" height="1.257" transform="matrix(0.867, -0.498, 0.498, 0.867, 827.512, 258.885)" fill="#fff"/><rect width="1.257" height="50.684" transform="translate(1084.547 226.553) rotate(-45)" fill="#fff"/><rect width="50.684" height="1.257" transform="translate(1084.547 261.503) rotate(-45)" fill="#fff"/></g></svg>